<svg width="30" height="30" viewBox="0 0 30 30" fill="none" xmlns="http://www.w3.org/2000/svg">
<path d="M19.9005 14.25C19.8233 15.0412 19.0691 15.6587 18.152 15.6587C17.1835 15.6587 16.3964 14.9712 16.3964 14.1225C16.3964 13.2737 17.182 12.5862 18.1506 12.5862C19.1262 12.6225 19.9005 13.3237 19.9005 14.1825C19.9005 14.2062 19.9005 14.2288 19.8991 14.2525V14.2487L19.9005 14.25ZM11.8951 12.5875C10.9123 12.6637 10.1481 13.38 10.1481 14.2525C10.1481 15.125 10.9123 15.8412 11.888 15.9175H11.8951C12.8708 15.8812 13.6451 15.18 13.6451 14.3212C13.6451 14.2975 13.6451 14.275 13.6436 14.2512V14.255C13.6451 14.23 13.6465 14.2012 13.6465 14.1712C13.6465 13.315 12.8737 12.6175 11.9051 12.585H11.9023L11.8951 12.5875ZM30 3.09V30C25.6816 26.66 27.0616 27.7662 22.0461 23.685L22.9546 26.46H3.51412C1.57278 26.455 0 25.0775 0 23.3775C0 23.375 0 23.3725 0 23.37V3.09C0 3.0875 0 3.085 0 3.0825C0 1.3825 1.57278 0.005 3.51269 0H26.4845C28.4258 0.005 29.9986 1.3825 29.9986 3.0825L30 3.09ZM25.1145 17.31C25.0545 14.1112 24.1489 11.11 22.5861 8.4525L22.6461 8.565C21.3261 7.65125 19.6634 7.07125 17.8492 6.99125L17.8292 6.99L17.5892 7.23C19.2319 7.62 20.6604 8.27625 21.8775 9.14875L21.8575 9.135C19.8591 8.17375 17.4777 7.6075 14.945 7.6075C12.8122 7.6075 10.7866 8.00875 8.961 8.73L9.05243 8.6975C8.41817 8.9525 8.04105 9.135 8.04105 9.135C9.30384 8.2325 10.8152 7.5525 12.4694 7.185L12.5494 7.17L12.378 6.99C10.5438 7.07125 8.88101 7.65125 7.54393 8.57625L7.56107 8.565C6.05828 11.11 5.15261 14.1112 5.09261 17.2925V17.31C6.23399 18.6987 8.07533 19.5925 10.1538 19.5925C10.2124 19.5925 10.2709 19.5912 10.3295 19.59H10.3209C10.3209 19.59 10.9552 18.915 11.4695 18.345C10.2324 18.0662 9.19528 17.4363 8.4796 16.5875L8.4696 16.575C8.72101 16.73 9.13814 16.93 9.16956 16.95C10.8966 17.79 12.958 18.2837 15.1521 18.2837C16.8535 18.2837 18.4748 17.9862 19.9519 17.4487L19.8691 17.475C20.6233 17.2225 21.2718 16.925 21.8747 16.5712L21.839 16.5912C21.0876 17.47 20.0148 18.1062 18.7763 18.37L18.7391 18.3762C19.2534 18.9463 19.8705 19.5912 19.8705 19.5912C19.9176 19.5925 19.9733 19.5925 20.029 19.5925C22.1161 19.5925 23.9646 18.7 25.1031 17.3262L25.1145 17.31Z" fill="#DE2A3C"/>
</svg>
