<svg width="25" height="25" viewBox="0 0 25 25" fill="none" xmlns="http://www.w3.org/2000/svg">
<path d="M12.5 0C5.625 0 0 5.625 0 12.5C0 19.375 5.625 25 12.5 25C19.375 25 25 19.375 25 12.5C25 5.625 19.375 0 12.5 0ZM18.625 7.625L16.5 17.875C16.375 18.625 15.875 18.75 15.375 18.375L12.125 15.875C11.375 16.625 10.625 17.25 10.5 17.5C10.25 17.625 10.125 17.875 9.875 17.875C9.5 17.875 9.5 17.625 9.375 17.375L8.25 13.625L4.875 12.5C4.125 12.25 4.125 11.75 5 11.375L17.75 6.5C18.25 6.375 18.875 6.625 18.625 7.625ZM15.625 8.75L8.5 13.25L9.625 17L9.875 14.5L16 9C16.375 8.625 16.125 8.625 15.625 8.75Z" fill="#DE2A3C"/>
</svg>
