<svg width="30" height="22" viewBox="0 0 30 22" fill="none" xmlns="http://www.w3.org/2000/svg">
<path fill-rule="evenodd" clip-rule="evenodd" d="M11.9827 15.0639V6.24532C14.971 7.71843 17.2854 9.14148 20.0227 10.6757C17.765 11.9874 14.971 13.4591 11.9827 15.0639ZM28.6365 1.85945C28.121 1.14797 27.2425 0.594139 26.3071 0.410785C23.5579 -0.13615 6.40648 -0.137706 3.65873 0.410785C2.90866 0.558091 2.24075 0.91415 1.667 1.46736C-0.750544 3.81805 0.00699927 16.4241 0.589721 18.4661C0.834761 19.35 1.15153 19.9874 1.55047 20.4058C2.06446 20.959 2.7682 21.3399 3.57654 21.5107C5.84018 22.0013 17.5021 22.2755 26.2593 21.5844C27.0661 21.4371 27.7803 21.0439 28.3436 20.4672C30.5789 18.1259 30.4265 4.81192 28.6365 1.85945Z" fill="#DE2A3C"/>
</svg>
