<svg width="18" height="17" viewBox="0 0 18 17" fill="none" xmlns="http://www.w3.org/2000/svg">
<path d="M4.75259 5.63527C4.99438 7.57227 6.61342 8.85155 8.90921 8.85155C11.2049 8.85155 12.8238 7.57224 13.0657 5.63527L13.4084 3.54251C13.621 1.48644 11.4528 0 8.90921 0C6.36554 0 4.19731 1.48644 4.40979 3.54251L4.75259 5.63527Z" fill="white"/>
<path d="M17.8003 14.0306L17.6362 13.2221C17.4988 12.5442 16.9482 11.959 16.157 11.6496L12.704 10.2985C12.5959 10.2562 12.5079 10.1924 12.4341 10.1212C11.4345 10.9391 10.22 11.4201 8.90915 11.4201C7.59833 11.4201 6.38371 10.9391 5.38411 10.1212C5.31035 10.1924 5.22234 10.2562 5.11425 10.2985L1.66129 11.6496C0.869968 11.959 0.319448 12.5442 0.182011 13.2221L0.0178417 14.0306C-0.0406431 14.3192 0.0365499 14.7428 0.370638 14.9545C0.817319 15.2372 2.46738 17 8.90915 17C15.3508 17 17.0008 15.2372 17.4475 14.9545C17.7817 14.7428 17.8588 14.3192 17.8003 14.0306Z" fill="white"/>
</svg>
